<svg xmlns="http://www.w3.org/2000/svg" viewBox="0 0 32 32"><defs><style>.cls-2{fill:#ffb74d}.cls-3{fill:#039be5}</style></defs><g id="ceo_copywriting" data-name="ceo copywriting"><path d="M26 1H13a1 1 0 0 0-.71.29l-7 7A1 1 0 0 0 5 9v21a1 1 0 0 0 1 1h20a1 1 0 0 0 1-1V2a1 1 0 0 0-1-1z" style="fill:#ffe082"/><path class="cls-2" d="M13.38 1.08a1 1 0 0 0-1.09.21l-7 7a1 1 0 0 0-.21 1.09A1 1 0 0 0 6 10h7a1 1 0 0 0 1-1V2a1 1 0 0 0-.62-.92z"/><path class="cls-3" d="M19.49 27.86a1 1 0 0 1-.35-1.37l10-17a1 1 0 0 1 1.72 1l-10 17a1 1 0 0 1-1.37.37z"/><path class="cls-2" d="M23 14H10a1 1 0 0 1 0-2h13a1 1 0 0 1 0 2zM20 18H10a1 1 0 0 1 0-2h10a1 1 0 0 1 0 2zM18 22h-8a1 1 0 0 1 0-2h8a1 1 0 0 1 0 2z"/><path class="cls-3" d="M16 26h-6a1 1 0 0 1 0-2h6a1 1 0 0 1 0 2z"/></g></svg>